<svg width="108" height="20" viewBox="0 0 108 20" fill="none" xmlns="http://www.w3.org/2000/svg">
<g clip-path="url(#clip0_14349_16419)">
<path d="M10.6254 15.7498L4.05663 19.0498L5.5267 12.4331L0 7.86647L7.48058 7.06647L10.6254 0.949804L13.7702 7.06647L21.2508 7.86647L15.7241 12.4331L17.1942 19.0498L10.6254 15.7498Z" fill="#F5885F"/>
</g>
<g clip-path="url(#clip1_14349_16419)">
<path d="M31.6254 15.7498L25.0566 19.0498L26.5267 12.4331L21 7.86647L28.4806 7.06647L31.6254 0.949804L34.7702 7.06647L42.2508 7.86647L36.7241 12.4331L38.1942 19.0498L31.6254 15.7498Z" fill="#F5885F"/>
</g>
<g clip-path="url(#clip2_14349_16419)">
<path d="M53.6254 15.7498L47.0566 19.0498L48.5267 12.4331L43 7.86647L50.4806 7.06647L53.6254 0.949804L56.7702 7.06647L64.2508 7.86647L58.7241 12.4331L60.1942 19.0498L53.6254 15.7498Z" fill="#F5885F"/>
</g>
<g clip-path="url(#clip3_14349_16419)">
<path d="M74.6254 15.7498L68.0566 19.0498L69.5267 12.4331L64 7.86647L71.4806 7.06647L74.6254 0.949804L77.7702 7.06647L85.2508 7.86647L79.7241 12.4331L81.1942 19.0498L74.6254 15.7498Z" fill="#F5885F"/>
</g>
<g clip-path="url(#clip4_14349_16419)">
<path d="M95.6254 15.7498L89.0566 19.0498L90.5267 12.4331L85 7.86647L92.4806 7.06647L95.6254 0.949804L98.7702 7.06647L106.251 7.86647L100.724 12.4331L102.194 19.0498L95.6254 15.7498Z" fill="#F5885F"/>
</g>
<defs>
<clipPath id="clip0_14349_16419">
<rect width="23" height="20" fill="white" transform="matrix(1 0 0 -1 0 20)"/>
</clipPath>
<clipPath id="clip1_14349_16419">
<rect width="23" height="20" fill="white" transform="matrix(1 0 0 -1 21 20)"/>
</clipPath>
<clipPath id="clip2_14349_16419">
<rect width="23" height="20" fill="white" transform="matrix(1 0 0 -1 43 20)"/>
</clipPath>
<clipPath id="clip3_14349_16419">
<rect width="23" height="20" fill="white" transform="matrix(1 0 0 -1 64 20)"/>
</clipPath>
<clipPath id="clip4_14349_16419">
<rect width="23" height="20" fill="white" transform="matrix(1 0 0 -1 85 20)"/>
</clipPath>
</defs>
</svg>
