<svg width="123" height="16" viewBox="0 0 123 16" fill="none" xmlns="http://www.w3.org/2000/svg">
<g clip-path="url(#clip0_14335_16418)">
<path d="M7.65703 12.7025L3.24453 15.1775L4.23203 10.215L0.519531 6.78999L5.54453 6.18999L7.65703 1.60249L9.76953 6.18999L14.7945 6.78999L11.082 10.215L12.0695 15.1775L7.65703 12.7025Z" fill="#F5885F"/>
</g>
<g clip-path="url(#clip1_14335_16418)">
<path d="M25.1375 12.7025L20.725 15.1775L21.7125 10.215L18 6.78999L23.025 6.18999L25.1375 1.60249L27.25 6.18999L32.275 6.78999L28.5625 10.215L29.55 15.1775L25.1375 12.7025Z" fill="#F5885F"/>
</g>
<g clip-path="url(#clip2_14335_16418)">
<path d="M42.618 12.7025L38.2055 15.1775L39.193 10.215L35.4805 6.78999L40.5055 6.18999L42.618 1.60249L44.7305 6.18999L49.7555 6.78999L46.043 10.215L47.0305 15.1775L42.618 12.7025Z" fill="#F5885F"/>
</g>
<g clip-path="url(#clip3_14335_16418)">
<path d="M60.1082 12.7025L55.6957 15.1775L56.6832 10.215L52.9707 6.78999L57.9957 6.18999L60.1082 1.60249L62.2207 6.18999L67.2457 6.78999L63.5332 10.215L64.5207 15.1775L60.1082 12.7025Z" fill="#F5885F"/>
</g>
<g clip-path="url(#clip4_14335_16418)">
<path d="M77.5867 12.7025L73.1742 15.1775L74.1617 10.215L70.4492 6.78999L75.4742 6.18999L77.5867 1.60249L79.6992 6.18999L84.7242 6.78999L81.0117 10.215L81.9992 15.1775L77.5867 12.7025ZM77.5867 11.2775L80.2367 12.765L79.6492 9.77749L81.8867 7.71499L78.8617 7.35249L77.5867 4.58999L76.3117 7.35249L73.2867 7.71499L75.5242 9.77749L74.9367 12.765L77.5867 11.2775Z" fill="#F5885F"/>
</g>
<path d="M93.665 8.70701C93.665 7.80501 93.786 6.94335 94.028 6.12201C94.27 5.29335 94.6074 4.54901 95.04 3.88901C95.48 3.22901 95.9897 2.68635 96.569 2.26101H97.636V2.36001C96.624 3.15201 95.8687 4.10535 95.37 5.22001C94.8787 6.32735 94.633 7.48968 94.633 8.70701C94.633 9.93168 94.8787 11.1013 95.37 12.216C95.8687 13.3307 96.624 14.2803 97.636 15.065V15.164H96.569C95.9897 14.7387 95.48 14.196 95.04 13.536C94.6074 12.876 94.27 12.1317 94.028 11.303C93.786 10.4743 93.665 9.60901 93.665 8.70701ZM99.1341 11.358V10.654L102.918 5.22001H104.194V10.5H105.261V11.358H104.194V13.14H103.226V11.358H99.1341ZM103.259 6.14401L100.3 10.5H103.259V6.14401ZM106.696 12.502C106.696 12.3187 106.758 12.1647 106.883 12.04C107.007 11.9153 107.158 11.853 107.334 11.853C107.51 11.853 107.66 11.9153 107.785 12.04C107.909 12.1647 107.972 12.3187 107.972 12.502C107.972 12.678 107.909 12.8283 107.785 12.953C107.66 13.0777 107.51 13.14 107.334 13.14C107.158 13.14 107.007 13.0777 106.883 12.953C106.758 12.8283 106.696 12.678 106.696 12.502ZM114.805 5.96801H110.966V8.48701C111.128 8.24501 111.373 8.04335 111.703 7.88201C112.033 7.72068 112.389 7.64001 112.77 7.64001C113.379 7.64001 113.874 7.77201 114.255 8.03601C114.644 8.29268 114.919 8.62635 115.08 9.03701C115.249 9.44035 115.333 9.86935 115.333 10.324C115.333 11.1527 115.102 11.831 114.64 12.359C114.178 12.8797 113.504 13.14 112.616 13.14C111.839 13.14 111.212 12.9457 110.735 12.557C110.266 12.1683 109.973 11.655 109.855 11.017H110.812C110.915 11.413 111.124 11.7247 111.439 11.952C111.762 12.1793 112.154 12.293 112.616 12.293C113.203 12.293 113.643 12.117 113.936 11.765C114.237 11.413 114.387 10.9437 114.387 10.357C114.387 9.75568 114.237 9.29735 113.936 8.98201C113.643 8.65935 113.203 8.49801 112.616 8.49801C112.22 8.49801 111.879 8.60068 111.593 8.80601C111.307 9.01135 111.095 9.29001 110.955 9.64201H110.042V5.09901H114.805V5.96801ZM121.014 8.70701C121.014 9.60901 120.893 10.4743 120.651 11.303C120.409 12.1317 120.068 12.876 119.628 13.536C119.195 14.196 118.689 14.7387 118.11 15.164H117.043V15.065C118.048 14.2803 118.799 13.3307 119.298 12.216C119.797 11.1013 120.046 9.93168 120.046 8.70701C120.046 7.48968 119.797 6.32735 119.298 5.22001C118.799 4.10535 118.048 3.15201 117.043 2.36001V2.26101H118.11C118.689 2.68635 119.195 3.22901 119.628 3.88901C120.068 4.54901 120.409 5.29335 120.651 6.12201C120.893 6.94335 121.014 7.80501 121.014 8.70701Z" fill="#999999"/>
<defs>
<clipPath id="clip0_14335_16418">
<rect width="15.48" height="15" fill="white" transform="matrix(1 0 0 -1 0.519531 15.89)"/>
</clipPath>
<clipPath id="clip1_14335_16418">
<rect width="15.48" height="15" fill="white" transform="matrix(1 0 0 -1 18 15.89)"/>
</clipPath>
<clipPath id="clip2_14335_16418">
<rect width="15.48" height="15" fill="white" transform="matrix(1 0 0 -1 35.4805 15.89)"/>
</clipPath>
<clipPath id="clip3_14335_16418">
<rect width="15.48" height="15" fill="white" transform="matrix(1 0 0 -1 52.9707 15.89)"/>
</clipPath>
<clipPath id="clip4_14335_16418">
<rect width="15.48" height="15" fill="white" transform="matrix(1 0 0 -1 70.4492 15.89)"/>
</clipPath>
</defs>
</svg>
