<svg width="21" height="25" viewBox="0 0 21 25" fill="none" xmlns="http://www.w3.org/2000/svg">
  <path d="M7.52941 18.8664L11.6622 14.7168C12.4207 13.9695 12.9339 13.0882 13.2016 12.0732C13.4581 11.0804 13.4581 10.0876 13.2016 9.09487C12.9339 8.07979 12.4235 7.19578 11.6706 6.44284C10.9176 5.6899 10.0336 5.17957 9.01856 4.91186C8.02579 4.6553 7.03303 4.6553 6.04026 4.91186C5.02519 5.17957 4.14118 5.6899 3.38824 6.44284C2.63529 7.19578 2.12497 8.07979 1.85725 9.09487C1.6007 10.0876 1.6007 11.0804 1.85725 12.0732C2.12497 13.0882 2.63808 13.9695 3.3966 14.7168L7.52941 18.8664ZM7.52941 21.2256L2.20863 15.9048C1.23817 14.9455 0.585621 13.8077 0.25098 12.4915C-0.0836601 11.2198 -0.0836601 9.9482 0.25098 8.67657C0.585621 7.36031 1.23538 6.21975 2.20026 5.25487C3.16514 4.28999 4.30571 3.63465 5.62196 3.28885C6.89359 2.96537 8.16523 2.96537 9.43686 3.28885C10.7531 3.63465 11.8937 4.28999 12.8586 5.25487C13.8234 6.21975 14.4732 7.36031 14.8078 8.67657C15.1425 9.9482 15.1425 11.2198 14.8078 12.4915C14.4732 13.8077 13.8207 14.9455 12.8502 15.9048L7.52941 21.2256ZM7.52941 12.2572C7.83059 12.2572 8.10946 12.1819 8.36601 12.0313C8.62257 11.8807 8.82614 11.6772 8.97673 11.4206C9.12732 11.1641 9.20261 10.8852 9.20261 10.584C9.20261 10.2828 9.12732 10.004 8.97673 9.74742C8.82614 9.49086 8.62257 9.28729 8.36601 9.1367C8.10946 8.98611 7.83059 8.91082 7.52941 8.91082C7.22824 8.91082 6.94937 8.98611 6.69281 9.1367C6.43625 9.28729 6.23268 9.49086 6.08209 9.74742C5.9315 10.004 5.85621 10.2828 5.85621 10.584C5.85621 10.8852 5.9315 11.1641 6.08209 11.4206C6.23268 11.6772 6.43625 11.8807 6.69281 12.0313C6.94937 12.1819 7.22824 12.2572 7.52941 12.2572ZM7.52941 13.9304C6.92706 13.9304 6.36932 13.7798 5.85621 13.4787C5.34309 13.1775 4.93595 12.7703 4.63477 12.2572C4.33359 11.7441 4.18301 11.1836 4.18301 10.5757C4.18301 9.96772 4.33359 9.40999 4.63477 8.90245C4.93595 8.39491 5.34309 7.99055 5.85621 7.68938C6.36932 7.3882 6.92706 7.23761 7.52941 7.23761C8.13176 7.23761 8.6895 7.3882 9.20261 7.68938C9.71573 7.99055 10.1229 8.39491 10.4241 8.90245C10.7252 9.40999 10.8758 9.96772 10.8758 10.5757C10.8758 11.1836 10.7252 11.7441 10.4241 12.2572C10.1229 12.7703 9.71573 13.1775 9.20261 13.4787C8.6895 13.7798 8.13176 13.9304 7.52941 13.9304Z" fill="#F53E32" />
</svg>