<svg width="36" height="36" viewBox="0 0 36 36" fill="none" xmlns="http://www.w3.org/2000/svg">
<rect x="1" y="0.890015" width="34" height="34" rx="17" fill="#F7F7F8"/>
<rect x="1" y="0.890015" width="34" height="34" rx="17" stroke="#E9E9E9"/>
<g clip-path="url(#clip0_8330_1003)">
<path d="M14.6667 14.6667V13.3333C14.6667 12.7289 14.8156 12.1711 15.1133 11.66C15.4111 11.1489 15.8156 10.7444 16.3267 10.4467C16.8378 10.1489 17.3956 10 18 10C18.6044 10 19.1622 10.1489 19.6733 10.4467C20.1844 10.7444 20.5889 11.1489 20.8867 11.66C21.1844 12.1711 21.3333 12.7289 21.3333 13.3333V14.6667H23.3333C23.52 14.6667 23.6778 14.7311 23.8067 14.86C23.9356 14.9889 24 15.1467 24 15.3333V23.3333C24 23.52 23.9356 23.6778 23.8067 23.8067C23.6778 23.9356 23.52 24 23.3333 24H12.6667C12.48 24 12.3222 23.9356 12.1933 23.8067C12.0644 23.6778 12 23.52 12 23.3333V15.3333C12 15.1467 12.0644 14.9889 12.1933 14.86C12.3222 14.7311 12.48 14.6667 12.6667 14.6667H14.6667ZM14.6667 16H13.3333V22.6667H22.6667V16H21.3333V17.3333H20V16H16V17.3333H14.6667V16ZM16 14.6667H20V13.3333C20 12.9689 19.9111 12.6333 19.7333 12.3267C19.5556 12.02 19.3133 11.7778 19.0067 11.6C18.7 11.4222 18.3644 11.3333 18 11.3333C17.6356 11.3333 17.3 11.4222 16.9933 11.6C16.6867 11.7778 16.4444 12.02 16.2667 12.3267C16.0889 12.6333 16 12.9689 16 13.3333V14.6667Z" fill="#F53E32"/>
</g>
<defs>
<clipPath id="clip0_8330_1003">
<rect width="16.48" height="16" fill="white" transform="matrix(1 0 0 -1 12 25)"/>
</clipPath>
</defs>
</svg>
